<?xml version="1.0" standalone="no"?><!DOCTYPE svg PUBLIC "-//W3C//DTD SVG 1.1//EN" "http://www.w3.org/Graphics/SVG/1.1/DTD/svg11.dtd"><svg t="1571730584210" class="icon" viewBox="0 0 1024 1024" version="1.1" xmlns="http://www.w3.org/2000/svg" p-id="14609" data-spm-anchor-id="a313x.7781069.0.i31" width="24" height="24" xmlns:xlink="http://www.w3.org/1999/xlink"><defs><style type="text/css"></style></defs><path d="M605.323 83.21a40.17 40.17 0 0 0-6.598-0.82c-19.754-0.756-37.037 12.75-41.018 32.153-2.194 10.526-0.15 21.287 5.788 30.3 5.918 9.005 14.986 15.157 25.523 17.306 84.826 17.509 157.859 67.094 205.625 139.617 47.745 72.554 64.392 159.22 46.937 244.045-2.194 10.56-0.15 21.299 5.788 30.291 5.918 9.004 14.986 15.145 25.523 17.328a45.93 45.93 0 0 0 6.62 0.808c8.452 0.32 16.624-1.98 23.693-6.62 9.003-5.928 15.155-15.006 17.326-25.533 45.084-218.918-96.298-433.76-315.207-478.876z m69.395 605.464c2.383 1.554 55.577 35.708 96.448 77.684 15.389 15.879 41.167 42.444 40.485 73.267-0.574 21.052-12.452 42.168-36.335 64.454-5.939 5.832-59.133 55.515-144.234 55.515-23.31 0-47.256-3.703-71.181-10.985-25.14-7.62-50.705-19.392-75.907-34.93-99.513-58.771-176.314-134.444-249.24-245.44C109.4 477.47 105.802 314.089 106.377 283.298c0.213-142.106 118.565-198.004 132.06-203.922 18.561-8.61 34.782-12.75 49.724-12.75 7.152 0 14.007 0.968 20.35 2.906 13.048 3.958 31.163 14.218 43.338 40.592 16.604 35.782 32.314 87.082 43.041 140.787 11.283 55.738-19.967 71.383-50.192 86.507l-1.193 0.521s-53.471 22.31-62.879 26.183c-9.238 3.852-14.05 14.261-10.9 23.776 21.564 65.327 54.494 133.071 95.193 195.907 40.04 61.827 87.656 118.884 137.679 165.075 3.575 3.257 8.173 5.087 13.028 5.087l1.64-0.085c5.257-0.425 10.217-3.086 13.516-7.321 8.13-10.451 20.604-25.512 33.76-38.039 24.946-23.723 47.509-35.239 68.967-35.239 5.875 0 11.708 0.862 17.327 2.576 5.383 1.651 14.09 6.334 23.882 12.815zM505.449 413.688c-10.558-2.193-19.627-8.323-25.543-17.316-5.96-9.004-8.004-19.776-5.833-30.333 4.045-19.381 21.286-32.898 41.018-32.11 2.194 0.064 4.408 0.33 6.62 0.787 93.553 19.286 153.986 111.136 134.72 204.732-2.15 10.493-8.28 19.55-17.284 25.521-7.088 4.63-15.304 6.919-23.691 6.62-2.172-0.115-4.386-0.362-6.599-0.83-10.58-2.139-19.668-8.313-25.586-17.327-5.917-8.972-7.961-19.71-5.79-30.268 4.981-24.224 0.257-48.959-13.41-69.67-13.623-20.67-34.42-34.824-58.622-39.806z m41.891-126.27c-21.755-4.512-35.804-25.852-31.334-47.596 4.002-19.423 21.244-32.951 40.998-32.184a40.73 40.73 0 0 1 6.619 0.819c75.714 15.613 140.852 59.845 183.51 124.608 42.593 64.721 57.47 142.064 41.848 217.78-2.172 10.558-8.324 19.647-17.328 25.533-7.087 4.672-15.24 6.96-23.67 6.63a40.822 40.822 0 0 1-6.64-0.83c-21.713-4.459-35.782-25.81-31.313-47.596 11.261-54.63 0.533-110.485-30.248-157.241-30.779-46.732-77.779-78.672-132.442-89.923z" fill="#ffffff" p-id="14610"></path></svg>